<svg width="71" height="64" viewBox="0 0 71 64" fill="none" xmlns="http://www.w3.org/2000/svg">
<g filter="url(#filter0_d_40_318)">
<rect x="4" width="42" height="56" fill="#FBB731"/>
<path fill-rule="evenodd" clip-rule="evenodd" d="M44.5 7H47.5C58.2644 7.01239 66.9876 15.7356 67 26.5C67 27.3284 66.3284 28 65.5 28H26.5C25.6716 28 25 27.3284 25 26.5C25.0124 15.7356 33.7356 7.01239 44.5 7ZM44.4999 9.99996C35.9723 10.0102 28.8533 16.5086 28.0675 25H63.9324C63.1467 16.5085 56.0277 10.0102 47.5 9.99996H44.4999Z" fill="white"/>
<path fill-rule="evenodd" clip-rule="evenodd" d="M59.5 37.1084H65.5001C66.3285 37.1084 67.0001 37.7739 67 38.5949V41.5677C66.9951 45.6704 63.6401 48.9951 59.5 49H32.5C28.3599 48.9951 25.0049 45.6704 25 41.5677V38.5949C25 37.7739 25.6716 37.1084 26.5 37.1084H47.4999C47.8245 37.1084 48.1403 37.2127 48.3999 37.4057L53.5 41.1961L58.6 37.4057C58.8596 37.2127 59.1754 37.1084 59.5 37.1084ZM59.5 46.0271C61.9853 46.0271 64 44.0306 64 41.5677V40.0813H59.9995L54.4 44.2434C53.8667 44.6397 53.1333 44.6397 52.6 44.2434L47.0005 40.0813H28V41.5677C28 44.0306 30.0147 46.0271 32.5 46.0271H59.5Z" fill="white"/>
<path d="M65.5 31.0361H26.5C25.6716 31.0361 25 31.7158 25 32.5542C25 33.3925 25.6716 34.0723 26.5 34.0723H65.5C66.3284 34.0723 67 33.3926 67 32.5542C67 31.7157 66.3284 31.0361 65.5 31.0361Z" fill="white"/>
<path d="M38.4096 15.8555C37.5712 15.8555 36.8915 16.5351 36.8915 17.3735V18.8916C36.8915 19.73 37.5712 20.4097 38.4096 20.4097C39.248 20.4097 39.9277 19.73 39.9277 18.8916V17.3735C39.9277 16.5351 39.248 15.8555 38.4096 15.8555Z" fill="white"/>
<path d="M46 15.8555C45.1616 15.8555 44.4819 16.5351 44.4819 17.3735V18.8916C44.4819 19.73 45.1616 20.4097 46 20.4097C46.8384 20.4097 47.5181 19.7299 47.5181 18.8915V17.3735C47.5181 16.5351 46.8384 15.8555 46 15.8555Z" fill="white"/>
<path d="M53.5903 15.8555C52.7519 15.8555 52.0723 16.5351 52.0723 17.3735V18.8916C52.0723 19.73 52.7519 20.4097 53.5903 20.4097C54.4288 20.4097 55.1084 19.73 55.1084 18.8916V17.3735C55.1083 16.5351 54.4287 15.8555 53.5903 15.8555Z" fill="white"/>
</g>
<defs>
<filter id="filter0_d_40_318" x="0" y="0" width="71" height="64" filterUnits="userSpaceOnUse" color-interpolation-filters="sRGB">
<feFlood flood-opacity="0" result="BackgroundImageFix"/>
<feColorMatrix in="SourceAlpha" type="matrix" values="0 0 0 0 0 0 0 0 0 0 0 0 0 0 0 0 0 0 127 0" result="hardAlpha"/>
<feOffset dy="4"/>
<feGaussianBlur stdDeviation="2"/>
<feComposite in2="hardAlpha" operator="out"/>
<feColorMatrix type="matrix" values="0 0 0 0 0 0 0 0 0 0 0 0 0 0 0 0 0 0 0.25 0"/>
<feBlend mode="normal" in2="BackgroundImageFix" result="effect1_dropShadow_40_318"/>
<feBlend mode="normal" in="SourceGraphic" in2="effect1_dropShadow_40_318" result="shape"/>
</filter>
</defs>
</svg>
